<svg width="155" height="27" xmlns="http://www.w3.org/2000/svg"><g fill="none" fill-rule="evenodd"><path fill="#75AF26" d="M29.3597138 22.3859513l-3.8137197-.0039219.0140581-13.27671649 13.729344.01384193-.0133552 13.27648576-3.8137197-.0039218.0110122-10.6972731-6.1023733-.0057675zM44.4817438 17.5641612c.0028116-2.6920244 1.6900141-3.2228624 2.753507-3.2217089 1.0402971.0009228 2.7267967.5356826 2.7237508 3.2274763-.0016401 1.6693366-.7193045 3.2618505-2.7307798 3.2595435-2.0569297-.0020763-2.7483524-1.596205-2.746478-3.2653109zm-3.3474604-4.8024572l-.0138238 13.1433726 3.5138142.0032298.0046861-4.4958584c1.1773632 1.2559243 3.0960552 1.3514336 3.5583314 1.351895 3.3514435.0036912 5.4107163-2.0982056 5.4135279-5.1542728.0035145-3.1859505-2.0276421-5.1976442-5.3329283-5.2008739-.8327063-.0013842-2.4510243.1305755-3.792164 1.514307h-.070056l.0253045-1.1583388-3.306692-.0034605zM62.3216905 21.2610865c-1.2949824 1.1945585-2.5445104 1.5156912-3.9308703 1.5145377-3.7909925-.0041526-3.9266528-2.811065-3.9254813-3.9680195l.0063261-6.031159 3.5138142.0032298-.0058575 5.5766823c-.002343 1.9154922.6670554 2.4846262 1.9613349 2.4857797 2.2188318.002307 2.3830769-1.9517119 2.3837798-2.6525749l.0056232-5.4055038 3.5133456.0036911-.0098406 9.6349051-3.5133456-.0034604.0011715-1.1581081zM70.8799849 14.7278347l1.8957305.0018455c.9936711.0011535 1.8484017.1529534 1.8479331.9488643-.0011715.8722722-1.341374.8911895-1.918692.8907281l-1.8266117-.0018456.0016401-1.8395923zm-3.5102998-1.9390235l-.0100749 9.6362892 6.9805339.006921c2.5428703.002307 4.299426-.4916192 4.3015347-2.4615563.0016401-1.5173061-.8530905-2.1819493-2.7949783-2.5259213v-.0569826c1.271318-.1691022 2.3807339-.9454037 2.382374-2.2546194.002343-2.3330571-2.7701424-2.3360562-3.8568311-2.3372097l-7.0025583-.0069209zm3.5067852 5.5803735l2.1501816.002307c1.6635381.0016148 2.0093666.4941568 2.008898 1.1387293-.0007029.4171034-.2319581.9860067-1.965318.9843918l-2.1961046-.002307.002343-2.1231211zM87.148919 18.461718c-.0023431 1.9344095-1.7127414 2.4061885-2.5686435 2.4057272-.6462025-.0006921-1.8024786-.2092439-1.8015414-1.1216577.0011715-1.0819774 1.3188811-1.2868379 2.0592727-1.3811937 1.3619925-.1894038 1.2478879-.1324212 2.3118494-.5105365l-.0009372.6076607zm-4.0665307-2.5455307c.0018744-1.4236424 1.526472-1.5350699 2.1515874-1.5346085.3936259.0006921 1.8498075.0212243 1.8947934 1.2716119l-.0004686.2671492c-.0705247.9481721-.9955456.756-3.5848075 1.0771327-2.1265172.2814526-4.3685448.8115984-4.3711221 3.0096967-.0007029.7979872.3437198 2.7898407 4.0880863 2.7937626 1.433923.0011535 3.0056151-.3573525 3.9308703-1.3062167h.0702903l.2996712.9500177 3.6970377.0039219v-.1697943c-.6686955-.1344974-.7160243-.7811462-.6904855-1.8222899l.0742735-4.4012719c.0229615-1.1172744-.0904403-3.6028233-5.3823659-3.6083601-1.2715522-.0011535-5.3619816.1084284-5.5273982 3.4657882l3.3500377.0034605zM91.035928 14.7479977l.0023431-1.935563 11.2785539.011535-.002343 1.935563-3.8835413-.0039219-.007732 7.7004956-3.512877-.0034605.0074977-7.7004956zM106.797952 16.6975642l3.166111.0034604c.922912.0006921 2.772251.0982777 2.770611 1.6917144-.001406 1.2524639-1.342311 1.4956204-2.844416 1.4942362l-3.096055-.0032298.003749-3.1861812zm.005389-4.930495l8.758411.0089973.002577-2.57944344-12.574005-.01314983-.013121 13.27671647 7.719988.0080745c3.745538.0039219 6.149702-1.2833775 6.152514-3.9950113.004217-4.2485493-4.803173-4.3484419-6.143376-4.3495954l-3.906034-.0039218.003046-2.3526665zM125.493308 18.5007983c-.002343 1.9344096-1.712272 2.4061886-2.567237 2.4057272-.647843-.0011535-1.801542-.2099359-1.801073-1.122119.001406-1.0819774 1.318178-1.2863765 2.057867-1.3807324 1.363398-.1900958 1.248356-.1328825 2.310912-.5105364l-.000469.6076606zm-4.064187-2.5455306c.001406-1.4236424 1.526237-1.5353006 2.149244-1.5346085.395032 0 1.851213.0212243 1.896199 1.2716118l-.000468.2671493c-.070525.9481721-.995077.7555386-3.584808 1.0771327-2.126283.2814525-4.367373.8115984-4.369716 3.0096967-.001406.7982179.343017 2.7898407 4.087149 2.7933012 1.433454.0013842 3.005615-.3568911 3.930402-1.3062167h.070759l.298734.9504791 3.698443.0034605v-.1697943c-.671507-.1347282-.71743-.7806848-.693297-1.8222899l.075211-4.4012719c.024133-1.1172744-.089972-3.602362-5.383303-3.607668-1.270147-.0013842-5.361279.1075056-5.527164 3.4655575l3.352615.0034605zM133.995886 22.4918416l-3.512409-.0034605.009841-9.6358279 3.512409.0034605-.003749 3.6240476 4.229604.004614.004452-3.6238169 3.513814.0034605-.010778 9.6353665-3.513346-.0032298.003984-4.0773708-4.229605-.004614zM150.624613 12.8727855l3.907206.0041526-4.835976 4.5087775 5.054813 5.1279732-4.113859-.0039219-3.785838-4.2160207h-.068182l-.003749 4.2118681-3.514986-.0034605.011013-9.6360585 3.513814.0032297-.004452 3.8690498h.067713z"/><path fill="#000" d="M0 22.3882117l8.8012881.0085359.00913774-8.6632017-8.8015224-.0085359z"/><path d="M.03397367.23076758L.0227272 11.0150141l2.32661034.002307c6.12346035.0062289 9.22537315 3.06691 9.21881275 9.095762l-.002343 2.289455 10.9533441.0108428.0234301-22.16000483L.03397367.23076758zM17.8842062 4.82997906l-.0135895 12.99803234-1.7956839-.0016149c-.7680392-6.428653-4.8669034-10.47164967-11.39453319-11.2403381l.00164011-1.76922918 13.20216648.01314984z" fill="#75AF26"/></g></svg>