<svg width="24" height="24" xmlns="http://www.w3.org/2000/svg"><g fill="none" fill-rule="evenodd"><path d="M0 0h24v24H0z"/><g fill="#424242" fill-rule="nonzero"><path d="M12.002 15.82c1.069 0 1.984-.377 2.745-1.128.762-.752 1.142-1.656 1.142-2.711V5.839c0-1.056-.38-1.96-1.142-2.711A3.768 3.768 0 0 0 12.002 2c-1.07 0-1.985.376-2.746 1.128-.761.751-1.142 1.655-1.142 2.71v6.143c0 1.055.38 1.96 1.142 2.71a3.768 3.768 0 0 0 2.746 1.128z"/><path d="M18.769 9.905a.751.751 0 0 0-.547-.228.752.752 0 0 0-.547.228.734.734 0 0 0-.23.54v1.536c0 1.48-.533 2.745-1.598 3.796-1.065 1.052-2.347 1.578-3.845 1.578-1.499 0-2.78-.526-3.846-1.578-1.065-1.05-1.597-2.317-1.597-3.796v-1.536a.733.733 0 0 0-.23-.54.752.752 0 0 0-.548-.228.752.752 0 0 0-.546.228.733.733 0 0 0-.231.54v1.536c0 1.767.597 3.305 1.792 4.612 1.194 1.308 2.67 2.057 4.428 2.25v1.583h-3.11a.752.752 0 0 0-.547.228.733.733 0 0 0-.23.54c0 .207.076.388.23.54a.752.752 0 0 0 .547.228h7.775c.21 0 .393-.077.547-.229a.733.733 0 0 0 .231-.54.733.733 0 0 0-.231-.54.751.751 0 0 0-.547-.227h-3.11v-1.584c1.758-.192 3.234-.941 4.429-2.249C18.402 15.286 19 13.748 19 11.981v-1.536a.733.733 0 0 0-.231-.54z"/></g></g></svg>