<svg width="44" height="44" xmlns="http://www.w3.org/2000/svg" xmlns:xlink="http://www.w3.org/1999/xlink"><defs><path d="M43.0136003 34.8018797l-6.7951137-6.8112704c-1.3534607-1.3510796-3.594818-1.3100303-4.9954293.0942613l-3.4234075 3.4304042c-.2162857-.1194737-.440156-.2442687-.6755295-.3766654-2.161846-1.2005654-5.1207006-2.846085-8.2342797-5.9689995-3.1228069-3.1295026-4.7661234-6.0996225-5.9676406-8.2677606-.1267882-.2296987-.2482672-.4511622-.3682293-.6614766l2.2976093-2.2993945 1.1295904-1.1335435c1.4027603-1.4063188 1.4414414-3.65212113.0911409-5.00712824L9.2771976.98827584C7.92689708-.36483085 5.68452852-.32378154 4.28176828 1.0825372L2.36667252 3.01299474c-.58982421.87331127-1.12643025 1.82048595-1.52575615 2.84190412C.47281347 6.82715923.24363403 7.75494951.138841 8.68464023-.7584098 16.1399033 2.64072715 22.9534543 11.8655475 32.1993032c12.7515039 12.7795098 23.0275412 11.814091 23.4708574 11.7669603.9655116-.1156729 1.8908252-.3468919 2.8311815-.7129149 1.0102604-.395543 1.9546618-.9326047 2.773539-1.5748236l1.9819661-1.8668565c1.3998528-1.4060653 1.4401773-3.6526278.0905088-5.0097888z" id="a"/></defs><use fill="#75AF26" fill-rule="nonzero" xlink:href="#a"/></svg>